<svg width="360" height="226" viewBox="0 0 360 226" fill="none" xmlns="http://www.w3.org/2000/svg">
<g opacity="0.5">
<g opacity="0.4">
<g opacity="0.4">
<path opacity="0.4" d="M320.599 19.4001C320.599 21.9001 318.499 24 315.999 24H259.299C256.799 24 254.699 21.9001 254.699 19.4001C254.699 16.9001 256.799 14.8 259.299 14.8H282.899C284.099 6.80005 290.999 0.600037 299.399 0.600037C307.799 0.600037 314.699 6.80005 315.899 14.8H316.099C318.499 14.8 320.599 16.9001 320.599 19.4001Z" fill="#E5EDEF"/>
</g>
</g>
<path opacity="0.4" d="M246.9 24H238.2C235.7 24 233.6 21.9001 233.6 19.4001C233.6 16.9001 235.7 14.8 238.2 14.8H246.9C249.4 14.8 251.5 16.9001 251.5 19.4001C251.5 21.9001 249.5 24 246.9 24Z" fill="#E5EDEF"/>
</g>
<path opacity="0.5" d="M15.7996 177V176.7H14.5996C14.9996 176.7 15.4996 176.8 15.7996 177Z" fill="#26BDF9"/>
<path opacity="0.5" d="M14.5996 181.6H15.7996V181.3C15.4996 181.4 14.9996 181.6 14.5996 181.6Z" fill="#26BDF9"/>
<path opacity="0.5" d="M16.9998 179.1C16.9998 180 16.4998 180.8 15.7998 181.2V181.5H20.2998C21.5998 181.5 22.6998 180.4 22.6998 179.1C22.6998 177.8 21.5998 176.7 20.2998 176.7H15.7998V177C16.4998 177.5 16.9998 178.2 16.9998 179.1Z" fill="#26BDF9"/>
<path opacity="0.5" d="M16.9998 179.1C16.9998 178.2 16.4998 177.4 15.7998 177V181.2C16.4998 180.8 16.9998 180 16.9998 179.1Z" fill="#1AC6FF"/>
<path d="M49.9004 93.5V198.6V222.5H51.9004V101.8C51.9004 98.8 51.2004 96 49.9004 93.5Z" fill="#0CACFE"/>
<path d="M249.6 183.4H250.4C249.9 180.9 249.6 178.2 249.6 175.6V183.4Z" fill="#0CACFE"/>
<path d="M249.6 152.7V170.1C249.6 163.9 251.1 158 253.7 152.7H249.6Z" fill="#0CACFE"/>
<path opacity="0.25" d="M195.8 222.5H189.4V222.6H195.8V222.5Z" fill="#11BCFD"/>
<path opacity="0.25" d="M207.2 222.5H200.7V222.6H207.2V222.5Z" fill="#11BCFD"/>
<path opacity="0.25" d="M220.6 222.5H212.1V222.6H220.6V222.5Z" fill="#11BCFD"/>
<path opacity="0.25" d="M174.2 222.5H171.1V222.6H174.2V222.5Z" fill="#11BCFD"/>
<path opacity="0.25" d="M184.5 222.5H179V222.6H184.5V222.5Z" fill="#11BCFD"/>
<path opacity="0.25" d="M360.1 222.5H354.8V222.6H360.1V222.5Z" fill="#11BCFD"/>
<path d="M351.5 222.5H342.9V222.6H351.5V222.5Z" fill="#11BCFD"/>
<path d="M354.7 222.5H351.4V222.6H354.7V222.5Z" fill="#11BCFD"/>
<path d="M339 222.5H327.1V222.6H339V222.5Z" fill="#11BCFD"/>
<path d="M342.8 222.5H339V222.6H342.8V222.5Z" fill="#11BCFD"/>
<path d="M339 202.4V222.5H342.8V209.1C342.9 206.3 341.3 203.7 339 202.4Z" fill="#11BCFD"/>
<path opacity="0.25" d="M81 222.5V222.6H110.2V222.5H93.3H81Z" fill="#11BCFD"/>
<path opacity="0.25" d="M201.4 152.7H190.2C189.6 152.7 189.1 152.7 188.5 152.8H203C202.6 152.7 202 152.7 201.4 152.7Z" fill="#11BCFD"/>
<path d="M179 222.5H174.1V222.6H179V222.5Z" fill="#0CACFE"/>
<path d="M189.4 222.5H184.5V222.6H189.4V222.5Z" fill="#0CACFE"/>
<path d="M200.7 222.5H195.8V222.6H200.7V222.5Z" fill="#0CACFE"/>
<path d="M212.1 222.5H207.2V222.6H212.1V222.5Z" fill="#0CACFE"/>
<path d="M212.1 194.6C212.1 193.3 211 192.2 209.7 192.2C208.4 192.2 207.3 193.3 207.3 194.6V222.5H212.2V194.6H212.1Z" fill="#0CACFE"/>
<path opacity="0.5" d="M352.1 194.3C351.4 194.3 350.9 194.8 350.9 195.5V198.7C350.9 199.2 351.2 199.6 351.7 199.8C352 198.1 352.5 196.5 353.3 195.1C353.1 194.7 352.7 194.3 352.1 194.3Z" fill="#2CCDFF"/>
<path opacity="0.5" d="M346.9 194.3C346.2 194.3 345.7 194.8 345.7 195.5V198.7C345.7 199.4 346.2 199.9 346.9 199.9C347.6 199.9 348.1 199.4 348.1 198.7V195.5C348.1 194.8 347.6 194.3 346.9 194.3Z" fill="#2CCDFF"/>
<path opacity="0.5" d="M341.6 194.3C340.9 194.3 340.4 194.8 340.4 195.5V198.7C340.4 199.4 340.9 199.9 341.6 199.9C342.3 199.9 342.8 199.4 342.8 198.7V195.5C342.9 194.8 342.3 194.3 341.6 194.3Z" fill="#2CCDFF"/>
<path d="M264.4 139.7H260.3V143.4C261.6 142.1 262.9 140.8 264.4 139.7Z" fill="#0CACFE"/>
<path d="M240.2 139.7C236.6 139.7 233.7 142.6 233.7 146.2C233.7 149.8 236.6 152.7 240.2 152.7H249.6V139.7H240.2Z" fill="#0CACFE"/>
<path d="M269.3 139.7C272.9 139.7 275.8 142.6 275.8 146.2C275.8 147.8 275.2 149.2 274.3 150.3H285.6V131.4C277.6 132 270.2 135 264.3 139.7H269.3Z" fill="#06A7FF"/>
<path d="M249.6 117.4V139.7H260.3V101C254 103.8 249.6 110.1 249.6 117.4Z" fill="#0CACFE"/>
<path d="M140.7 120.7V101.7C140.7 95.1 135.3 89.7 128.7 89.7H113.3C111.3 89.7 109.4 90.2 107.7 91.1V120.7H140.7Z" fill="#06A7FF"/>
<path opacity="0.5" d="M33.1002 108C33.1002 109.3 32.0002 110.4 30.7002 110.4H36.1002C37.4002 110.4 38.5002 109.3 38.5002 108C38.5002 106.7 37.4002 105.6 36.1002 105.6H30.7002C32.0002 105.6 33.1002 106.7 33.1002 108Z" fill="#26BDF9"/>
<path opacity="0.5" d="M24.8998 108C24.8998 106.7 25.9998 105.6 27.2998 105.6H15.7998V110.5H27.2998C25.9998 110.4 24.8998 109.3 24.8998 108Z" fill="#26BDF9"/>
<path opacity="0.5" d="M33.1002 117.3C33.1002 118.6 32.0002 119.7 30.7002 119.7H36.1002C37.4002 119.7 38.5002 118.6 38.5002 117.3C38.5002 116 37.4002 114.9 36.1002 114.9H30.7002C32.0002 114.9 33.1002 116 33.1002 117.3Z" fill="#26BDF9"/>
<path opacity="0.5" d="M24.8998 117.3C24.8998 116 25.9998 114.9 27.2998 114.9H15.7998V119.8H27.2998C25.9998 119.8 24.8998 118.7 24.8998 117.3Z" fill="#26BDF9"/>
<path opacity="0.5" d="M24.8998 126.7C24.8998 125.4 25.9998 124.3 27.2998 124.3H15.7998V129.2H27.2998C25.9998 129.1 24.8998 128 24.8998 126.7Z" fill="#26BDF9"/>
<path opacity="0.5" d="M33.1002 126.7C33.1002 128 32.0002 129.1 30.7002 129.1H36.1002C37.4002 129.1 38.5002 128 38.5002 126.7C38.5002 125.4 37.4002 124.3 36.1002 124.3H30.7002C32.0002 124.2 33.1002 125.3 33.1002 126.7Z" fill="#26BDF9"/>
<path opacity="0.5" d="M8.9002 179.1C8.9002 177.8 10.0002 176.7 11.3002 176.7H0.200195V181.6H11.3002C10.0002 181.6 8.9002 180.5 8.9002 179.1Z" fill="#26BDF9"/>
<path opacity="0.5" d="M24.9004 108C24.9004 109.3 26.0004 110.4 27.3004 110.4H30.5004C31.8004 110.4 32.9004 109.3 32.9004 108C32.9004 106.7 31.8004 105.6 30.5004 105.6H27.3004C26.0004 105.6 24.9004 106.7 24.9004 108Z" fill="#1AC6FF"/>
<path opacity="0.5" d="M24.9004 117.3C24.9004 118.6 26.0004 119.7 27.3004 119.7H30.5004C31.8004 119.7 32.9004 118.6 32.9004 117.3C32.9004 116 31.8004 114.9 30.5004 114.9H27.3004C26.0004 114.9 24.9004 116 24.9004 117.3Z" fill="#1AC6FF"/>
<path opacity="0.5" d="M24.9004 126.7C24.9004 128 26.0004 129.1 27.3004 129.1H30.5004C31.8004 129.1 32.9004 128 32.9004 126.7C32.9004 125.4 31.8004 124.3 30.5004 124.3H27.3004C26.0004 124.2 24.9004 125.3 24.9004 126.7Z" fill="#1AC6FF"/>
<path opacity="0.5" d="M15.8 177C15.4 176.8 15 176.7 14.6 176.7H11.4C10.1 176.7 9 177.8 9 179.1C9 180.4 10.1 181.5 11.4 181.5H14.6C15 181.5 15.5 181.4 15.8 181.2V177Z" fill="#1AC6FF"/>
<path d="M354.5 193.4C354.1 194 353.7 194.6 353.3 195.2C353.3 195.3 353.4 195.4 353.4 195.5V198.7C353.4 199.4 352.9 199.9 352.2 199.9C352 199.9 351.9 199.9 351.7 199.8C351.6 200.6 351.5 201.4 351.5 202.2V222.5H354.8V195.5C354.8 194.8 354.6 194 354.5 193.4Z" fill="#11BCFD"/>
<path d="M179 194.6C179 193.3 177.9 192.2 176.6 192.2C175.3 192.2 174.2 193.3 174.2 194.6V222.5H179.1V194.6H179Z" fill="#0CACFE"/>
<path d="M189.4 194.6C189.4 193.3 188.3 192.2 187 192.2C185.7 192.2 184.6 193.3 184.6 194.6V222.5H189.5V194.6H189.4Z" fill="#0CACFE"/>
<path d="M200.7 194.6C200.7 193.3 199.6 192.2 198.3 192.2C197 192.2 195.9 193.3 195.9 194.6V222.5H200.8V194.6H200.7Z" fill="#0CACFE"/>
<path d="M176.6 177.6C175.3 177.6 174.2 178.7 174.2 180V186.6C174.2 187.9 175.3 189 176.6 189C177.9 189 179 187.9 179 186.6V180C179 178.7 177.9 177.6 176.6 177.6Z" fill="#0CACFE"/>
<path d="M187 177.6C185.7 177.6 184.6 178.7 184.6 180V186.6C184.6 187.9 185.7 189 187 189C188.3 189 189.4 187.9 189.4 186.6V180C189.4 178.7 188.3 177.6 187 177.6Z" fill="#0CACFE"/>
<path d="M198.3 177.6C197 177.6 195.9 178.7 195.9 180V186.6C195.9 187.9 197 189 198.3 189C199.6 189 200.7 187.9 200.7 186.6V180C200.7 178.7 199.6 177.6 198.3 177.6Z" fill="#0CACFE"/>
<path d="M209.7 177.6C208.4 177.6 207.3 178.7 207.3 180V186.6C207.3 187.9 208.4 189 209.7 189C211 189 212.1 187.9 212.1 186.6V180C212.1 178.7 211 177.6 209.7 177.6Z" fill="#0CACFE"/>
<path opacity="0.5" d="M76.1002 73.8C76.1002 75.1 75.0002 76.2 73.7002 76.2H83.7002C85.0002 76.2 86.1002 75.1 86.1002 73.8C86.1002 72.5 85.0002 71.4 83.7002 71.4H73.7002C75.0002 71.4 76.1002 72.5 76.1002 73.8Z" fill="#26BDF9"/>
<path opacity="0.5" d="M67.9004 73.8C67.9004 72.5 69.0004 71.4 70.3004 71.4H49.9004V76.3H70.4004C69.0004 76.3 67.9004 75.2 67.9004 73.8Z" fill="#26BDF9"/>
<path opacity="0.5" d="M175.9 73.8H166.3V78.7H175.9C177.2 78.7 178.3 77.6 178.3 76.3C178.3 75 177.3 73.8 175.9 73.8Z" fill="#26BDF9"/>
<path opacity="0.5" d="M175.9 80.9H166.3V85.8H175.9C177.2 85.8 178.3 84.7 178.3 83.4C178.4 82 177.3 80.9 175.9 80.9Z" fill="#26BDF9"/>
<path opacity="0.25" d="M67.9004 73.8C67.9004 75.1 69.0004 76.2 70.3004 76.2H73.5004C74.8004 76.2 75.9004 75.1 75.9004 73.8C75.9004 72.5 74.8004 71.4 73.5004 71.4H70.3004C69.0004 71.4 67.9004 72.5 67.9004 73.8Z" fill="#1AC6FF"/>
<path d="M285.7 150.3H274.4C273.2 151.8 271.4 152.7 269.4 152.7H253.8C251.2 157.9 249.7 163.8 249.7 170.1V175.7C249.7 178.4 250 181 250.5 183.5H285.8V150.3H285.7Z" fill="#0CACFE"/>
<path d="M351.6 199.9C351.2 199.7 350.8 199.3 350.8 198.8V195.6C350.8 194.9 351.3 194.4 352 194.4C352.5 194.4 353 194.8 353.1 195.3C353.5 194.7 353.9 194.1 354.3 193.5C353.4 190.2 350.3 187.8 346.7 187.8C342.4 187.8 338.8 191.3 338.8 195.7V202.6C341.1 204 342.6 206.5 342.6 209.4V222.8H351.2V202.5C351.4 201.4 351.5 200.6 351.6 199.9ZM342.9 198.7C342.9 199.4 342.4 199.9 341.7 199.9C341 199.9 340.5 199.4 340.5 198.7V195.5C340.5 194.8 341 194.3 341.7 194.3C342.4 194.3 342.9 194.8 342.9 195.5V198.7ZM348.1 198.7C348.1 199.4 347.6 199.9 346.9 199.9C346.2 199.9 345.7 199.4 345.7 198.7V195.5C345.7 194.8 346.2 194.3 346.9 194.3C347.6 194.3 348.1 194.8 348.1 195.5V198.7Z" fill="#11BCFD"/>
<path d="M321.7 150.3C314.9 138.9 302.5 131.3 288.4 131.3C287.5 131.3 286.6 131.3 285.7 131.4V150.3H321.7Z" fill="#06A7FF"/>
<path d="M264.4 139.7C270.4 135 277.7 132 285.7 131.4V117.4C285.7 107.4 277.6 99.4 267.7 99.4C265.1 99.4 262.6 100 260.4 101V139.7H264.4Z" fill="#06A7FF"/>
<path d="M285.7 183.4H250.4C254.1 201 269.7 214.3 288.4 214.3C309.7 214.3 327.2 196.9 327.2 175.5V169.9C327.2 162.7 325.2 156 321.8 150.2H285.8V183.4H285.7Z" fill="#0CACFE"/>
<path d="M14.6002 181.6H11.3002H0.200195V225.5H15.8002V181.6H14.6002Z" fill="#0CACFE"/>
<path d="M101.2 101.8V160.9C101.2 167.5 106.6 172.9 113.2 172.9H128.6C135.2 172.9 140.6 167.5 140.6 160.9V120.7H107.6V91.1C103.8 93.2 101.2 97.2 101.2 101.8Z" fill="#0CACFE"/>
<path d="M18.3004 141.4C17.5004 141.4 16.7004 141.5 15.9004 141.6V176.7H20.4004C21.7004 176.7 22.8004 177.8 22.8004 179.1C22.8004 180.4 21.7004 181.5 20.4004 181.5H15.9004V225.4H36.4004V159.4C36.3004 149.5 28.2004 141.4 18.3004 141.4Z" fill="#0CACFE"/>
<path opacity="0.9" d="M49.8998 198.6V93.5C46.8998 87.7 40.8998 83.8 33.8998 83.8C23.8998 83.8 15.8998 91.9 15.8998 101.8V105.6H27.3998H30.5998H35.9998C37.2998 105.6 38.3998 106.7 38.3998 108C38.3998 109.3 37.2998 110.4 35.9998 110.4H30.5998H27.3998H15.7998V114.8H27.2998H30.4998H35.8998C37.1998 114.8 38.2998 115.9 38.2998 117.2C38.2998 118.5 37.1998 119.6 35.8998 119.6H30.4998H27.2998H15.7998V124H27.2998H30.4998H35.8998C37.1998 124 38.2998 125.1 38.2998 126.4C38.2998 127.7 37.1998 128.8 35.8998 128.8H30.4998H27.2998H15.7998V141.3C16.5998 141.2 17.3998 141.1 18.1998 141.1C28.1998 141.1 36.1998 149.2 36.1998 159.1V225.1H51.7998V222.1H49.7998V198.6H49.8998Z" fill="#06A7FF"/>
<path d="M14.6002 176.7H15.8002V141.6C7.00019 142.8 0.200195 150.3 0.200195 159.5V176.7H11.3002H14.6002Z" fill="#0CACFE"/>
<path d="M335 201.3C336.5 201.3 337.8 201.7 339 202.4V195.5C339 191.2 342.5 187.6 346.9 187.6C350.5 187.6 353.5 190 354.5 193.3C356 191.4 357.9 189.9 360.1 188.9V128.1C359.7 128 359.2 128 358.8 128C353.8 128 349.7 132.1 349.7 137.1V138.9H346C345.5 138.9 345.2 139.3 345.2 139.7V143.7C345.2 144.2 345.6 144.5 346 144.5H349.7V150.2H321.8C325.3 156 327.2 162.7 327.2 169.9V175.5C327.2 196.8 309.8 214.3 288.4 214.3C269.8 214.3 254.1 201 250.4 183.4H249.6V175.6V170V152.7H240.2C236.6 152.7 233.7 149.8 233.7 146.2C233.7 142.6 236.6 139.7 240.2 139.7H249.6V117.5C249.6 110.2 254 103.8 260.3 101V93.2H249.4V85.9C249.4 79.3 244.1 74 237.5 74H231.2V100.5H220.3C220.3 100.5 220.3 57.9 220.3 51.2C220.3 44.4 166.3 51.2 166.3 51.2V99H144.5V120.7H140.7V160.8C140.7 167.4 135.3 172.8 128.7 172.8H113.3C106.7 172.8 101.3 167.4 101.3 160.8V101.7C101.3 97.1 103.9 93.1 107.7 91.1V61.4C107.7 58.3 105.2 55.7 102 55.7H55.4998C52.3998 55.7 49.7998 58.2 49.7998 61.4V71.3H70.2998H73.4998H83.4998C84.7998 71.3 85.8998 72.4 85.8998 73.7C85.8998 75 84.7998 76.1 83.4998 76.1H73.4998H70.2998H49.8998V93.3C51.1998 95.8 51.8998 98.6 51.8998 101.6V222.3H53.0998H64.0998V202C64.0998 193.9 70.5998 187.4 78.6998 187.4C79.4998 187.4 80.1998 187.5 80.9998 187.6V183.9C80.9998 175.8 87.4998 169.3 95.5998 169.3C103.7 169.3 110.2 175.8 110.2 183.9V222.4H171.1V171.8C171.1 161.8 181.3 152.7 181.3 152.7V132.4C181.3 124.3 187.8 117.8 195.9 117.8C204 117.8 210.5 124.3 210.5 132.4V152.7C210.5 152.7 220.7 161.8 220.7 171.8V222.4H327.2V209C327.1 204.8 330.6 201.3 335 201.3ZM178.4 83.3C178.4 84.6 177.3 85.7 176 85.7H166.4V80.8H176C177.3 80.9 178.4 82 178.4 83.3ZM175.9 78.7H166.3V73.8H175.9C177.2 73.8 178.3 74.9 178.3 76.2C178.3 77.5 177.3 78.7 175.9 78.7Z" fill="#0CACFE"/>
<path opacity="0.25" d="M203.1 152.8H188.6C178.8 153.6 171.1 161.9 171.1 171.9V222.5H174.2V194.6C174.2 193.3 175.3 192.2 176.6 192.2C177.9 192.2 179 193.3 179 194.6V222.5H184.5V194.6C184.5 193.3 185.6 192.2 186.9 192.2C188.2 192.2 189.3 193.3 189.3 194.6V222.5H195.7V194.6C195.7 193.3 196.8 192.2 198.1 192.2C199.4 192.2 200.5 193.3 200.5 194.6V222.5H207V194.6C207 193.3 208.1 192.2 209.4 192.2C210.7 192.2 211.8 193.3 211.8 194.6V222.5H220.3V171.9C220.6 161.8 212.9 153.6 203.1 152.8ZM179 186.6C179 187.9 177.9 189 176.6 189C175.3 189 174.2 187.9 174.2 186.6V180C174.2 178.7 175.3 177.6 176.6 177.6C177.9 177.6 179 178.7 179 180V186.6ZM189.4 186.6C189.4 187.9 188.3 189 187 189C185.7 189 184.6 187.9 184.6 186.6V180C184.6 178.7 185.7 177.6 187 177.6C188.3 177.6 189.4 178.7 189.4 180V186.6ZM200.7 186.6C200.7 187.9 199.6 189 198.3 189C197 189 195.9 187.9 195.9 186.6V180C195.9 178.7 197 177.6 198.3 177.6C199.6 177.6 200.7 178.7 200.7 180V186.6ZM212.1 186.6C212.1 187.9 211 189 209.7 189C208.4 189 207.3 187.9 207.3 186.6V180C207.3 178.7 208.4 177.6 209.7 177.6C211 177.6 212.1 178.7 212.1 180V186.6Z" fill="#11BCFD"/>
<path opacity="0.25" d="M354.5 193.4C354.7 194.1 354.8 194.8 354.8 195.5V222.5H360.1V188.9C357.8 189.9 355.9 191.5 354.5 193.4Z" fill="#11BCFD"/>
<path d="M78.6996 187.6C70.5996 187.6 64.0996 194.1 64.0996 202.2V222.5H80.9996V187.8C80.1996 187.6 79.4996 187.6 78.6996 187.6Z" fill="#11BCFD"/>
<path d="M339 202.4C337.8 201.7 336.4 201.3 335 201.3C330.7 201.3 327.1 204.8 327.1 209.2V222.6H339V202.4Z" fill="#11BCFD"/>
<path opacity="0.25" d="M95.6 169.4C87.5 169.4 81 175.9 81 184V187.7C88 188.8 93.3 194.8 93.3 202.1V222.4H110.2V183.9C110.2 176 103.7 169.4 95.6 169.4Z" fill="#11BCFD"/>
<path opacity="0.25" d="M93.3 202.2C93.3 194.9 88 188.9 81 187.8V222.5H93.3V202.2Z" fill="#11BCFD"/>
<path opacity="0.5" d="M352.1 200C352.8 200 353.3 199.5 353.3 198.8V195.6C353.3 195.5 353.3 195.4 353.2 195.3C352.4 196.7 351.9 198.3 351.6 200C351.8 199.9 352 200 352.1 200Z" fill="#2CCDFF"/>
<path d="M260.3 143.4V150.3H274.3C275.2 149.2 275.8 147.7 275.8 146.2C275.8 142.6 272.9 139.7 269.3 139.7H264.4C262.9 140.8 261.6 142.1 260.3 143.4Z" fill="#0CACFE"/>
<path d="M260.3 143.4V139.7H249.6V152.7H253.7C255.5 149.3 257.7 146.1 260.3 143.4Z" fill="#0CACFE"/>
<path d="M260.3 143.4C257.7 146.2 255.5 149.3 253.7 152.7H269.3C271.3 152.7 273.1 151.8 274.3 150.3H260.3V143.4Z" fill="#0CACFE"/>
</svg>
