<svg width="1407" height="567" viewBox="0 0 1407 567" fill="none" xmlns="http://www.w3.org/2000/svg">
<path d="M426.1 389H327.1C320.5 389 315.1 383.6 315.1 377V142C315.1 135.4 320.5 130 327.1 130H426.1C432.7 130 438.1 135.4 438.1 142V377C438.1 383.6 432.7 389 426.1 389Z" fill="#06A7FF"/>
<path d="M970 518.5H827.1C799.9 518.5 777.7 496.3 777.7 469.1V308.9C777.7 281.7 799.9 259.5 827.1 259.5H970C997.2 259.5 1019.4 281.7 1019.4 308.9V469.1C1019.4 496.3 997.2 518.5 970 518.5Z" fill="#06A7FF"/>
<path opacity="0.9" d="M161.3 566.2H48.8V167.5C48.8 136.4 74 111.3 105 111.3C136.1 111.3 161.2 136.5 161.2 167.5V566.2H161.3Z" fill="#06A7FF"/>
<path d="M112.6 553.1H0.100006V347.3C0.100006 316.2 25.3 291.1 56.3 291.1C87.4 291.1 112.5 316.3 112.5 347.3V553.1H112.6Z" fill="#0CACFE"/>
<path opacity="0.9" d="M1242.5 520H1130V314.2C1130 283.1 1155.2 258 1186.2 258C1217.3 258 1242.4 283.2 1242.4 314.2V520H1242.5Z" fill="#06A7FF"/>
<path d="M890.2 422.1H777.7V216.3C777.7 185.2 802.9 160.1 833.9 160.1C865 160.1 890.1 185.3 890.1 216.3V422.1H890.2Z" fill="#06A7FF"/>
<path opacity="0.5" d="M111.6 194.5H48.8V179.3H111.6C115.8 179.3 119.2 182.7 119.2 186.9C119.2 191.1 115.8 194.5 111.6 194.5Z" fill="#26BDF9"/>
<path opacity="0.5" d="M111.6 223.6H48.8V208.4H111.6C115.8 208.4 119.2 211.8 119.2 216C119.2 220.2 115.8 223.6 111.6 223.6Z" fill="#26BDF9"/>
<path opacity="0.5" d="M111.6 252.7H48.8V237.5H111.6C115.8 237.5 119.2 240.9 119.2 245.1C119.2 249.3 115.8 252.7 111.6 252.7Z" fill="#26BDF9"/>
<path opacity="0.5" d="M62.9 416.3H0.100006V401.1H62.9C67.1 401.1 70.5 404.5 70.5 408.7C70.5 412.9 67.1 416.3 62.9 416.3Z" fill="#26BDF9"/>
<path opacity="0.5" d="M94.9 194.5H84.8C80.6 194.5 77.2 191.1 77.2 186.9C77.2 182.7 80.6 179.3 84.8 179.3H94.9C99.1 179.3 102.5 182.7 102.5 186.9C102.5 191.1 99.1 194.5 94.9 194.5Z" fill="#1AC6FF"/>
<path opacity="0.5" d="M94.9 223.6H84.8C80.6 223.6 77.2 220.2 77.2 216C77.2 211.8 80.6 208.4 84.8 208.4H94.9C99.1 208.4 102.5 211.8 102.5 216C102.5 220.2 99.1 223.6 94.9 223.6Z" fill="#1AC6FF"/>
<path opacity="0.5" d="M94.9 252.7H84.8C80.6 252.7 77.2 249.3 77.2 245.1C77.2 240.9 80.6 237.5 84.8 237.5H94.9C99.1 237.5 102.5 240.9 102.5 245.1C102.5 249.3 99.1 252.7 94.9 252.7Z" fill="#1AC6FF"/>
<path opacity="0.5" d="M44.9 416.3H34.8C30.6 416.3 27.2 412.9 27.2 408.7C27.2 404.5 30.6 401.1 34.8 401.1H44.9C49.1 401.1 52.5 404.5 52.5 408.7C52.6 412.9 49.1 416.3 44.9 416.3Z" fill="#1AC6FF"/>
<path d="M154.9 469.4V41.8C154.9 32.1 162.8 24.2 172.5 24.2H317.4C327.1 24.2 335 32.1 335 41.8V226.6H450V158.6H518V9.6C518 9.6 686.4 -11.4 686.4 9.6C686.4 30.6 686.4 163.4 686.4 163.4H720.4V80.8H739.9C760.4 80.8 777 97.4 777 117.9V140.7H811V318.8H1089.5V301H1078C1076.5 301 1075.4 299.8 1075.4 298.4V285.9C1075.4 284.4 1076.6 283.3 1078 283.3H1089.5V277.6C1089.5 262 1102.2 249.3 1117.8 249.3C1133.4 249.3 1146.1 262 1146.1 277.6V283H1158C1159.5 283 1160.6 284.2 1160.6 285.6V298.5C1160.6 300 1159.4 301.1 1158 301.1H1147.7V315.5H1209.2V393.2H1265.9V253.3C1265.9 235.9 1280 221.7 1297.5 221.7C1314.9 221.7 1329.1 235.8 1329.1 253.3V543.9H165H154.8V469.4H154.9Z" fill="#0CACFE"/>
<path d="M1406.7 543.9H1294.2V328.3C1294.2 297.2 1319.4 272.1 1350.4 272.1C1381.5 272.1 1406.6 297.3 1406.6 328.3V543.9H1406.7Z" fill="#0CACFE"/>
<path d="M1333.1 420.3H1210.4V543.9H1333.1V420.3Z" fill="#0CACFE"/>
<path opacity="0.25" d="M687.3 544.1H532.8V345.4C532.8 334.8 541.4 326.2 552 326.2H668.2C678.8 326.2 687.4 334.8 687.4 345.4V544.1H687.3Z" fill="#11BCFD"/>
<path opacity="0.25" d="M1186.3 544.1H1095.2V480.7C1095.2 455.6 1115.6 435.2 1140.7 435.2C1165.8 435.2 1186.2 455.6 1186.2 480.7V544.1H1186.3Z" fill="#11BCFD"/>
<path d="M290.3 543.9H199.2V480.5C199.2 455.4 219.6 435 244.7 435C269.8 435 290.2 455.4 290.2 480.5V543.9H290.3Z" fill="#11BCFD"/>
<path d="M1105.5 544.1H1056.4V459.7C1056.4 446.1 1067.4 435.2 1080.9 435.2C1094.5 435.2 1105.4 446.2 1105.4 459.7V544.1H1105.5Z" fill="#11BCFD"/>
<path d="M1068.5 544.1H1019.4V502.2C1019.4 488.6 1030.4 477.7 1043.9 477.7C1057.5 477.7 1068.4 488.7 1068.4 502.2V544.1H1068.5Z" fill="#11BCFD"/>
<path opacity="0.25" d="M343 544.1H251.9V423.9C251.9 398.8 272.3 378.4 297.4 378.4C322.5 378.4 342.9 398.8 342.9 423.9V544.1H343Z" fill="#11BCFD"/>
<path opacity="0.25" d="M655.6 326.5H564.5V263.1C564.5 238 584.9 217.6 610 217.6C635.1 217.6 655.5 238 655.5 263.1V326.5H655.6Z" fill="#11BCFD"/>
<path d="M557.6 456.9V544.1H542.4V456.9C542.4 452.7 545.8 449.3 550 449.3C554.2 449.3 557.6 452.7 557.6 456.9Z" fill="#0CACFE"/>
<path d="M590 456.9V544.1H574.8V456.9C574.8 452.7 578.2 449.3 582.4 449.3C586.6 449.3 590 452.7 590 456.9Z" fill="#0CACFE"/>
<path d="M625.2 456.9V544.1H610V456.9C610 452.7 613.4 449.3 617.6 449.3C621.8 449.3 625.2 452.7 625.2 456.9Z" fill="#0CACFE"/>
<path d="M660.8 456.9V544.1H645.6V456.9C645.6 452.7 649 449.3 653.2 449.3C657.4 449.3 660.8 452.7 660.8 456.9Z" fill="#0CACFE"/>
<path d="M557.6 411.6V432.1C557.6 436.3 554.2 439.7 550 439.7C545.8 439.7 542.4 436.3 542.4 432.1V411.6C542.4 407.4 545.8 404 550 404C554.2 404 557.6 407.4 557.6 411.6Z" fill="#0CACFE"/>
<path d="M590 411.6V432.1C590 436.3 586.6 439.7 582.4 439.7C578.2 439.7 574.8 436.3 574.8 432.1V411.6C574.8 407.4 578.2 404 582.4 404C586.6 404 590 407.4 590 411.6Z" fill="#0CACFE"/>
<path d="M625.2 411.6V432.1C625.2 436.3 621.8 439.7 617.6 439.7C613.4 439.7 610 436.3 610 432.1V411.6C610 407.4 613.4 404 617.6 404C621.8 404 625.2 407.4 625.2 411.6Z" fill="#0CACFE"/>
<path d="M660.8 411.6V432.1C660.8 436.3 657.4 439.7 653.2 439.7C649 439.7 645.6 436.3 645.6 432.1V411.6C645.6 407.4 649 404 653.2 404C657.4 404 660.8 407.4 660.8 411.6Z" fill="#0CACFE"/>
<path opacity="0.25" d="M1400.7 333.9V354.4C1400.7 358.6 1397.3 362 1393.1 362C1388.9 362 1385.5 358.6 1385.5 354.4V333.9C1385.5 329.7 1388.9 326.3 1393.1 326.3C1397.3 326.2 1400.7 329.7 1400.7 333.9Z" fill="#11BCFD"/>
<path opacity="0.25" d="M1378.1 333.9V354.4C1378.1 358.6 1374.7 362 1370.5 362C1366.3 362 1362.9 358.6 1362.9 354.4V333.9C1362.9 329.7 1366.3 326.3 1370.5 326.3C1374.7 326.2 1378.1 329.7 1378.1 333.9Z" fill="#11BCFD"/>
<path opacity="0.5" d="M260.1 88H154.9V72.8H260.1C264.3 72.8 267.7 76.2 267.7 80.4C267.7 84.6 264.3 88 260.1 88Z" fill="#26BDF9"/>
<path opacity="0.5" d="M548 95.6H518V80.4H548C552.2 80.4 555.6 83.8 555.6 88C555.6 92.2 552.2 95.6 548 95.6Z" fill="#26BDF9"/>
<path opacity="0.5" d="M548 117.5H518V102.3H548C552.2 102.3 555.6 105.7 555.6 109.9C555.6 114.1 552.2 117.5 548 117.5Z" fill="#26BDF9"/>
<path d="M1156.3 487.4H1186.2V502.6H1156.3C1152.1 502.6 1148.7 499.2 1148.7 495C1148.7 490.8 1152.1 487.4 1156.3 487.4Z" fill="#0CACFE"/>
<path opacity="0.25" d="M229 88H218.9C214.7 88 211.3 84.6 211.3 80.4C211.3 76.2 214.7 72.8 218.9 72.8H229C233.2 72.8 236.6 76.2 236.6 80.4C236.6 84.5 233.2 88 229 88Z" fill="#1AC6FF"/>
<path opacity="0.5" d="M1101.1 459.8V469.9C1101.1 472 1099.4 473.7 1097.3 473.7C1095.2 473.7 1093.5 472 1093.5 469.9V459.8C1093.5 457.7 1095.2 456 1097.3 456C1099.4 455.9 1101.1 457.7 1101.1 459.8Z" fill="#2CCDFF"/>
<path opacity="0.5" d="M1084.8 459.8V469.9C1084.8 472 1083.1 473.7 1081 473.7C1078.9 473.7 1077.2 472 1077.2 469.9V459.8C1077.2 457.7 1078.9 456 1081 456C1083.1 455.9 1084.8 457.7 1084.8 459.8Z" fill="#2CCDFF"/>
<path opacity="0.5" d="M1068.5 459.8V469.9C1068.5 472 1066.8 473.7 1064.7 473.7C1062.6 473.7 1060.9 472 1060.9 469.9V459.8C1060.9 457.7 1062.6 456 1064.7 456C1066.8 455.9 1068.5 457.7 1068.5 459.8Z" fill="#2CCDFF"/>
<path d="M839.1 326.2H748.2C737 326.2 727.9 317.1 727.9 305.9C727.9 294.7 737 285.6 748.2 285.6H839.1C850.3 285.6 859.4 294.7 859.4 305.9C859.4 317.2 850.4 326.2 839.1 326.2Z" fill="#0CACFE"/>
</svg>
