<svg width="1920" height="375" viewBox="0 0 1920 375" fill="none" xmlns="http://www.w3.org/2000/svg">
<path d="M1919.8 63.9001H0V375H1919.8V63.9001Z" fill="#00A3FB"/>
<path d="M1919.8 166.9H0V375H1919.8V166.9Z" fill="#009AF9"/>
<path d="M1919.8 132.4H0V146.1H1919.8V132.4Z" fill="#009AF9"/>
<path d="M1774.6 105.4H176.9C161.4 105.4 148.7 92.7 148.7 77.2C148.7 61.7 161.4 49 176.9 49H1774.7C1790.2 49 1802.9 61.7 1802.9 77.2C1802.8 92.7 1790.1 105.4 1774.6 105.4Z" fill="#00A3FB"/>
<path d="M314.9 97.2001H256.8C230.2 97.2001 208.6 75.6001 208.6 49.0001C208.6 22.4001 230.2 0.800049 256.8 0.800049H314.9C341.5 0.800049 363.1 22.4001 363.1 49.0001C363.1 75.6001 341.5 97.2001 314.9 97.2001Z" fill="#00A3FB"/>
<path d="M1626.5 82.5H1463.2C1456.6 82.5 1451.2 77.1 1451.2 70.5V52C1451.2 45.4 1456.6 40 1463.2 40H1626.5C1633.1 40 1638.5 45.4 1638.5 52V70.5C1638.5 77.1 1633.1 82.5 1626.5 82.5Z" fill="#00A3FB"/>
</svg>
